# Blender v3.0.0 OBJ File: 'Arrow 6-7-22.blend'
# www.blender.org
mtllib Arrow 6-7-22.mtl
o Cube
v 1.000000 1.000000 -1.000000
v 1.000000 -1.000000 -1.000000
v 1.000000 1.000000 1.000000
v 1.000000 -1.000000 1.000000
v -1.000000 1.000000 -0.010000
v -1.000000 -1.000000 -0.010000
v -1.000000 1.000000 0.010000
v -1.000000 -1.000000 0.010000
v -1.000000 -1.066513 0.000000
v 1.000000 1.230371 0.000000
v -1.000000 1.066513 0.000000
v 1.000000 -1.230371 0.000000
vt 0.625000 0.625000
vt 0.875000 0.625000
vt 0.875000 0.750000
vt 0.625000 0.750000
vt 0.375000 0.750000
vt 0.625000 1.000000
vt 0.375000 1.000000
vt 0.375000 0.125000
vt 0.625000 0.125000
vt 0.625000 0.250000
vt 0.375000 0.250000
vt 0.125000 0.625000
vt 0.375000 0.625000
vt 0.125000 0.750000
vt 0.625000 0.500000
vt 0.375000 0.500000
vt 0.125000 0.500000
vt 0.375000 0.000000
vt 0.625000 0.000000
vt 0.875000 0.500000
vn -0.1085 0.9538 0.2803
vn -0.4436 0.0000 0.8962
vn -1.0000 0.0000 0.0000
vn -0.1085 -0.9538 0.2803
vn 1.0000 0.0000 0.0000
vn -0.4436 0.0000 -0.8962
vn -0.1085 -0.9538 -0.2803
vn -0.1085 0.9538 -0.2803
usemtl Material
s off
f 10/1/1 11/2/1 7/3/1 3/4/1
f 4/5/2 3/4/2 7/6/2 8/7/2
f 9/8/3 11/9/3 5/10/3 6/11/3
f 9/12/4 12/13/4 4/5/4 8/14/4
f 12/13/5 10/1/5 3/4/5 4/5/5
f 6/11/6 5/10/6 1/15/6 2/16/6
f 2/16/5 1/15/5 10/1/5 12/13/5
f 6/17/7 2/16/7 12/13/7 9/12/7
f 8/18/3 7/19/3 11/9/3 9/8/3
f 1/15/8 5/20/8 11/2/8 10/1/8
